<svg xmlns="http://www.w3.org/2000/svg" width="1600" height="1000" viewBox="0 0 1600 1000">
  <defs>
    <pattern id="dg" width="46" height="46" patternUnits="userSpaceOnUse">
      <circle cx="2" cy="2" r="1.6" fill="rgba(159,179,201,0.16)"/>
    </pattern>
    <marker id="fa" viewBox="0 0 10 10" refX="9" refY="5" markerWidth="8" markerHeight="8" orient="auto-start-reverse">
      <path d="M0 0L10 5L0 10z" fill="rgba(234,242,252,0.6)"/>
    </marker>
    <marker id="fo" viewBox="0 0 10 10" refX="9" refY="5" markerWidth="8" markerHeight="8" orient="auto-start-reverse">
      <path d="M0 0L10 5L0 10z" fill="rgba(255,87,34,0.75)"/>
    </marker>
  </defs>
  <rect width="1600" height="1000" fill="#0d2b4c"/>
  <rect width="1600" height="1000" fill="url(#dg)"/>
  <!-- participant boxes -->
  <g fill="#123458" stroke="rgba(34,211,238,0.55)" stroke-width="2">
    <rect x="130" y="80" width="170" height="64" rx="10"/>
    <rect x="450" y="80" width="170" height="64" rx="10"/>
    <rect x="770" y="80" width="170" height="64" rx="10"/>
    <rect x="1090" y="80" width="170" height="64" rx="10"/>
  </g>
  <rect x="1410" y="80" width="170" height="64" rx="10" fill="#123458" stroke="rgba(255,87,34,0.65)" stroke-width="2"/>
  <g fill="rgba(234,242,252,0.32)">
    <rect x="165" y="104" width="100" height="14" rx="7"/>
    <rect x="485" y="104" width="100" height="14" rx="7"/>
    <rect x="805" y="104" width="100" height="14" rx="7"/>
    <rect x="1125" y="104" width="100" height="14" rx="7"/>
    <rect x="1445" y="104" width="100" height="14" rx="7"/>
  </g>
  <!-- lifelines -->
  <g stroke="rgba(159,179,201,0.35)" stroke-width="1.8" stroke-dasharray="8 8">
    <line x1="215" y1="144" x2="215" y2="900"/>
    <line x1="535" y1="144" x2="535" y2="900"/>
    <line x1="855" y1="144" x2="855" y2="900"/>
    <line x1="1175" y1="144" x2="1175" y2="900"/>
    <line x1="1495" y1="144" x2="1495" y2="900"/>
  </g>
  <!-- activation bars -->
  <g fill="rgba(34,211,238,0.14)" stroke="rgba(34,211,238,0.5)" stroke-width="1.5">
    <rect x="203" y="230" width="24" height="420"/>
    <rect x="523" y="270" width="24" height="330"/>
    <rect x="843" y="350" width="24" height="200"/>
    <rect x="1163" y="430" width="24" height="120"/>
  </g>
  <rect x="1483" y="500" width="24" height="80" fill="rgba(255,87,34,0.15)" stroke="rgba(255,87,34,0.55)" stroke-width="1.5"/>
  <!-- messages -->
  <g stroke="rgba(234,242,252,0.6)" stroke-width="2.4" fill="none">
    <path d="M227 290h296" marker-end="url(#fa)"/>
    <path d="M547 380h296" marker-end="url(#fa)"/>
    <path d="M867 450h296" marker-end="url(#fa)"/>
    <path d="M1187 520h296" marker-end="url(#fo)"/>
  </g>
  <path d="M1483 560h-296" stroke="rgba(255,87,34,0.7)" stroke-width="2.4" stroke-dasharray="9 7" fill="none" marker-end="url(#fo)"/>
  <path d="M1175 610h-604" stroke="rgba(234,242,252,0.6)" stroke-width="2.4" stroke-dasharray="9 7" fill="none" marker-end="url(#fa)"/>
  <path d="M523 660h-296" stroke="rgba(234,242,252,0.6)" stroke-width="2.4" stroke-dasharray="9 7" fill="none" marker-end="url(#fa)"/>
  <!-- message label bars -->
  <g fill="rgba(234,242,252,0.26)">
    <rect x="300" y="268" width="130" height="9" rx="4.5"/>
    <rect x="620" y="358" width="120" height="9" rx="4.5"/>
    <rect x="940" y="428" width="135" height="9" rx="4.5"/>
    <rect x="1260" y="498" width="110" height="9" rx="4.5"/>
    <rect x="1240" y="572" width="120" height="9" rx="4.5"/>
    <rect x="760" y="638" width="130" height="9" rx="4.5"/>
  </g>
  <!-- self message -->
  <path d="M227 720h70v54h-62" stroke="rgba(34,211,238,0.6)" stroke-width="2.4" fill="none" marker-end="url(#fa)"/>
  <rect x="310" y="736" width="120" height="9" rx="4.5" fill="rgba(234,242,252,0.26)"/>
  <!-- alt frame -->
  <rect x="440" y="770" width="720" height="150" fill="none" stroke="rgba(159,179,201,0.4)" stroke-width="1.8"/>
  <path d="M440 770l38 38v112" stroke="rgba(159,179,201,0.4)" stroke-width="1.8" fill="none"/>
  <rect x="458" y="782" width="52" height="26" rx="5" fill="rgba(255,87,34,0.18)" stroke="rgba(255,87,34,0.6)" stroke-width="1.5"/>
  <line x1="800" y1="808" x2="1160" y2="808" stroke="rgba(159,179,201,0.3)" stroke-width="1.5" stroke-dasharray="6 6"/>
</svg>
